<?xml version="1.0" encoding="UTF-8" standalone="no"?>
<!DOCTYPE svg PUBLIC "-//W3C//DTD SVG 1.0//EN" "http://www.w3.org/TR/2001/PR-SVG-20010719/DTD/svg10.dtd">
<svg width="38cm" height="20cm" viewBox="95 143 750 400" xmlns="http://www.w3.org/2000/svg" xmlns:xlink="http://www.w3.org/1999/xlink">
  <g>
    <rect style="fill: #ffffff" x="173" y="144" width="87.25" height="56"/>
    <rect style="fill: none; fill-opacity:0; stroke-width: 2; stroke: #000000" x="173" y="144" width="87.25" height="56"/>
    <text font-size="16" style="fill: #000000;text-anchor:middle;font-family:sans-serif;font-style:normal;font-weight:normal" x="216.625" y="163">orderx</text>
    <text font-size="11.2" style="fill: #000000;text-anchor:middle;font-family:sans-serif;font-style:normal;font-weight:normal" x="216.625" y="178.5">Abstract base</text>
    <text font-size="11.2" style="fill: #000000;text-anchor:middle;font-family:sans-serif;font-style:normal;font-weight:normal" x="216.625" y="192.5">class</text>
    <rect style="fill: #ffffff" x="173" y="200" width="87.25" height="8"/>
    <rect style="fill: none; fill-opacity:0; stroke-width: 2; stroke: #000000" x="173" y="200" width="87.25" height="8"/>
    <rect style="fill: #ffffff" x="173" y="208" width="87.25" height="8"/>
    <rect style="fill: none; fill-opacity:0; stroke-width: 2; stroke: #000000" x="173" y="208" width="87.25" height="8"/>
  </g>
  <g>
    <rect style="fill: #ffffff" x="156" y="289" width="121.45" height="70"/>
    <rect style="fill: none; fill-opacity:0; stroke-width: 2; stroke: #000000" x="156" y="289" width="121.45" height="70"/>
    <text font-size="16" style="fill: #000000;text-anchor:middle;font-family:sans-serif;font-style:normal;font-weight:700" x="216.725" y="308">mylib::order</text>
    <text font-size="11.2" style="fill: #000000;text-anchor:middle;font-family:sans-serif;font-style:normal;font-weight:normal" x="216.725" y="323.5">Customized for</text>
    <text font-size="11.2" style="fill: #000000;text-anchor:middle;font-family:sans-serif;font-style:normal;font-weight:normal" x="216.725" y="337.5">mylib. </text>
    <text font-size="11.2" style="fill: #000000;text-anchor:middle;font-family:sans-serif;font-style:normal;font-weight:normal" x="216.725" y="351.5">Optional.</text>
    <rect style="fill: #ffffff" x="156" y="359" width="121.45" height="8"/>
    <rect style="fill: none; fill-opacity:0; stroke-width: 2; stroke: #000000" x="156" y="359" width="121.45" height="8"/>
    <rect style="fill: #ffffff" x="156" y="367" width="121.45" height="8"/>
    <rect style="fill: none; fill-opacity:0; stroke-width: 2; stroke: #000000" x="156" y="367" width="121.45" height="8"/>
  </g>
  <g>
    <polyline style="fill: none; fill-opacity:0; stroke-width: 2; stroke: #000000" points="216.625,234.236 216.625,260.5 216.725,260.5 216.725,289 "/>
    <polygon style="fill: #ffffff" points="224.625,234.236 216.625,218.236 208.625,234.236 "/>
    <polygon style="fill: none; fill-opacity:0; stroke-width: 2; stroke: #000000" points="224.625,234.236 216.625,218.236 208.625,234.236 "/>
  </g>
  <g>
    <rect style="fill: #ffffff" x="97" y="456" width="240.1" height="70"/>
    <rect style="fill: none; fill-opacity:0; stroke-width: 2; stroke: #000000" x="97" y="456" width="240.1" height="70"/>
    <text font-size="16" style="fill: #000000;text-anchor:middle;font-family:sans-serif;font-style:normal;font-weight:700" x="217.05" y="475">mylib::orders::MY:ORDER</text>
    <text font-size="11.2" style="fill: #000000;text-anchor:middle;font-family:sans-serif;font-style:normal;font-weight:normal" x="217.05" y="490.5">A specific order class.  It</text>
    <text font-size="11.2" style="fill: #000000;text-anchor:middle;font-family:sans-serif;font-style:normal;font-weight:normal" x="217.05" y="504.5">is defined by the order_set</text>
    <text font-size="11.2" style="fill: #000000;text-anchor:middle;font-family:sans-serif;font-style:normal;font-weight:normal" x="217.05" y="518.5">object.</text>
    <rect style="fill: #ffffff" x="97" y="526" width="240.1" height="8"/>
    <rect style="fill: none; fill-opacity:0; stroke-width: 2; stroke: #000000" x="97" y="526" width="240.1" height="8"/>
    <rect style="fill: #ffffff" x="97" y="534" width="240.1" height="8"/>
    <rect style="fill: none; fill-opacity:0; stroke-width: 2; stroke: #000000" x="97" y="534" width="240.1" height="8"/>
  </g>
  <polyline style="fill: none; fill-opacity:0; stroke-width: 2; stroke: #000000" points="217.05,499 217.05,499 "/>
  <g>
    <polyline style="fill: none; fill-opacity:0; stroke-width: 2; stroke: #000000" points="216.725,393.236 216.725,423.5 217.05,423.5 217.05,456 "/>
    <polygon style="fill: #ffffff" points="224.725,393.236 216.725,377.236 208.725,393.236 "/>
    <polygon style="fill: none; fill-opacity:0; stroke-width: 2; stroke: #000000" points="224.725,393.236 216.725,377.236 208.725,393.236 "/>
  </g>
  <g>
    <rect style="fill: #ffffff" x="689" y="149" width="123.45" height="70"/>
    <rect style="fill: none; fill-opacity:0; stroke-width: 2; stroke: #000000" x="689" y="149" width="123.45" height="70"/>
    <text font-size="16" style="fill: #000000;text-anchor:middle;font-family:sans-serif;font-style:normal;font-weight:700" x="750.725" y="168">order_flunky</text>
    <text font-size="11.2" style="fill: #000000;text-anchor:middle;font-family:sans-serif;font-style:normal;font-weight:normal" x="750.725" y="183.5">Handles order</text>
    <text font-size="11.2" style="fill: #000000;text-anchor:middle;font-family:sans-serif;font-style:normal;font-weight:normal" x="750.725" y="197.5">execution,</text>
    <text font-size="11.2" style="fill: #000000;text-anchor:middle;font-family:sans-serif;font-style:normal;font-weight:normal" x="750.725" y="211.5">undo/redo, etc.</text>
    <rect style="fill: #ffffff" x="689" y="219" width="123.45" height="8"/>
    <rect style="fill: none; fill-opacity:0; stroke-width: 2; stroke: #000000" x="689" y="219" width="123.45" height="8"/>
    <rect style="fill: #ffffff" x="689" y="227" width="123.45" height="8"/>
    <rect style="fill: none; fill-opacity:0; stroke-width: 2; stroke: #000000" x="689" y="227" width="123.45" height="8"/>
  </g>
  <g>
    <rect style="fill: #ffffff" x="658" y="296" width="186.25" height="98"/>
    <rect style="fill: none; fill-opacity:0; stroke-width: 2; stroke: #000000" x="658" y="296" width="186.25" height="98"/>
    <text font-size="16" style="fill: #000000;text-anchor:middle;font-family:sans-serif;font-style:normal;font-weight:700" x="751.125" y="315">mylib::mylib_flunky</text>
    <text font-size="11.2" style="fill: #000000;text-anchor:middle;font-family:sans-serif;font-style:normal;font-weight:normal" x="751.125" y="330.5">Customized for</text>
    <text font-size="11.2" style="fill: #000000;text-anchor:middle;font-family:sans-serif;font-style:normal;font-weight:normal" x="751.125" y="344.5">mylib.  Handles</text>
    <text font-size="11.2" style="fill: #000000;text-anchor:middle;font-family:sans-serif;font-style:normal;font-weight:normal" x="751.125" y="358.5">logging and</text>
    <text font-size="11.2" style="fill: #000000;text-anchor:middle;font-family:sans-serif;font-style:normal;font-weight:normal" x="751.125" y="372.5">notifications. </text>
    <text font-size="11.2" style="fill: #000000;text-anchor:middle;font-family:sans-serif;font-style:normal;font-weight:normal" x="751.125" y="386.5">Optional.</text>
    <rect style="fill: #ffffff" x="658" y="394" width="186.25" height="8"/>
    <rect style="fill: none; fill-opacity:0; stroke-width: 2; stroke: #000000" x="658" y="394" width="186.25" height="8"/>
    <rect style="fill: #ffffff" x="658" y="402" width="186.25" height="20"/>
    <rect style="fill: none; fill-opacity:0; stroke-width: 2; stroke: #000000" x="658" y="402" width="186.25" height="20"/>
    <text font-size="12.8" style="fill: #000000;text-anchor:start;font-family:monospace;font-style:normal;font-weight:normal" x="661" y="416">+send()(order,parms)</text>
  </g>
  <g>
    <polyline style="fill: none; fill-opacity:0; stroke-width: 2; stroke: #000000" points="750.725,253.236 750.725,272.996 751.125,272.996 751.125,294.992 "/>
    <polygon style="fill: #ffffff" points="758.725,253.236 750.725,237.236 742.725,253.236 "/>
    <polygon style="fill: none; fill-opacity:0; stroke-width: 2; stroke: #000000" points="758.725,253.236 750.725,237.236 742.725,253.236 "/>
  </g>
  <g>
    <rect style="fill: #ffffff" x="419" y="264" width="95.1" height="70"/>
    <rect style="fill: none; fill-opacity:0; stroke-width: 2; stroke: #000000" x="419" y="264" width="95.1" height="70"/>
    <text font-size="16" style="fill: #000000;text-anchor:middle;font-family:sans-serif;font-style:normal;font-weight:700" x="466.55" y="283">order_set</text>
    <text font-size="11.2" style="fill: #000000;text-anchor:middle;font-family:sans-serif;font-style:normal;font-weight:normal" x="466.55" y="298.5">Collects order</text>
    <text font-size="11.2" style="fill: #000000;text-anchor:middle;font-family:sans-serif;font-style:normal;font-weight:normal" x="466.55" y="312.5">classes related</text>
    <text font-size="11.2" style="fill: #000000;text-anchor:middle;font-family:sans-serif;font-style:normal;font-weight:normal" x="466.55" y="326.5">to a package.</text>
    <rect style="fill: #ffffff" x="419" y="334" width="95.1" height="8"/>
    <rect style="fill: none; fill-opacity:0; stroke-width: 2; stroke: #000000" x="419" y="334" width="95.1" height="8"/>
    <rect style="fill: #ffffff" x="419" y="342" width="95.1" height="20"/>
    <rect style="fill: none; fill-opacity:0; stroke-width: 2; stroke: #000000" x="419" y="342" width="95.1" height="20"/>
    <text font-size="12.8" style="fill: #000000;text-anchor:start;font-family:monospace;font-style:normal;font-weight:normal" x="422" y="356">+define()</text>
  </g>
  <g>
    <rect style="fill: #ffffff" x="416" y="481" width="104.95" height="36"/>
    <rect style="fill: none; fill-opacity:0; stroke-width: 2; stroke: #000000" x="416" y="481" width="104.95" height="36"/>
    <text font-size="12.7998" style="fill: #000000;text-anchor:middle;font-family:sans-serif;font-style:normal;font-weight:normal" x="468.475" y="502.9">
      <tspan x="468.475" y="502.9">mylib::orders</tspan>
    </text>
    <line style="fill: none; fill-opacity:0; stroke-width: 1; stroke: #000000" x1="426" y1="505.9" x2="510.95" y2="505.9"/>
  </g>
  <g>
    <polyline style="fill: none; fill-opacity:0; stroke-width: 2; stroke-dasharray: 8; stroke: #000000" points="468.475,479.991 468.475,425.498 466.55,425.498 466.55,369.711 "/>
    <polyline style="fill: none; fill-opacity:0; stroke-width: 2; stroke: #000000" points="471.55,382.359 466.55,366.359 461.55,382.359 "/>
  </g>
  <g>
    <rect style="fill: #ffffff" x="699" y="481" width="103.15" height="36"/>
    <rect style="fill: none; fill-opacity:0; stroke-width: 2; stroke: #000000" x="699" y="481" width="103.15" height="36"/>
    <text font-size="12.7998" style="fill: #000000;text-anchor:middle;font-family:sans-serif;font-style:normal;font-weight:normal" x="750.575" y="502.9">
      <tspan x="750.575" y="502.9">mylib::flunky</tspan>
    </text>
    <line style="fill: none; fill-opacity:0; stroke-width: 1; stroke: #000000" x1="709" y1="505.9" x2="792.15" y2="505.9"/>
  </g>
  <g>
    <polyline style="fill: none; fill-opacity:0; stroke-width: 2; stroke-dasharray: 8; stroke: #000000" points="750.575,479.991 750.575,455.499 751.125,455.499 751.125,429.713 "/>
    <polyline style="fill: none; fill-opacity:0; stroke-width: 2; stroke: #000000" points="756.125,442.36 751.125,426.36 746.125,442.36 "/>
  </g>
  <g>
    <polyline style="fill: none; fill-opacity:0; stroke-width: 2; stroke-dasharray: 8; stroke: #000000" points="338.107,499 339.107,499 405.993,499 408.288,499 "/>
    <polyline style="fill: none; fill-opacity:0; stroke-width: 2; stroke: #000000" points="395.641,504 411.641,499 395.641,494 "/>
  </g>
  <g>
    <polyline style="fill: none; fill-opacity:0; stroke-width: 2; stroke-dasharray: 8; stroke: #000000" points="697.994,499 696.994,499 530.957,499 528.662,499 "/>
    <polyline style="fill: none; fill-opacity:0; stroke-width: 2; stroke: #000000" points="541.309,494 525.309,499 541.309,504 "/>
  </g>
</svg>
